<svg version="1.1" id="Layer_1" xmlns="http://www.w3.org/2000/svg" xmlns:xlink="http://www.w3.org/1999/xlink" x="0px" y="0px"
	 width="100%" viewBox="0 0 1200 1200" enable-background="new 0 0 1200 1200" xml:space="preserve">
<path fill="#F2EEE3" opacity="1.000000" stroke="none" 
	d="
M1101.000000,1201.000000 
	C734.000000,1201.000000 367.500000,1201.000000 1.000000,1201.000000 
	C1.000000,801.000000 1.000000,401.000000 1.000000,1.000000 
	C401.000000,1.000000 801.000000,1.000000 1201.000000,1.000000 
	C1201.000000,401.000000 1201.000000,801.000000 1201.000000,1201.000000 
	C1167.833374,1201.000000 1134.666626,1201.000000 1101.000000,1201.000000 
M232.126160,633.695374 
	C232.651917,632.473938 233.195053,631.259644 233.700607,630.029907 
	C236.749619,622.613708 236.746704,622.612488 244.930161,622.612549 
	C283.905548,622.612732 322.880951,622.621765 361.856354,622.605347 
	C369.265411,622.602173 370.890106,621.351685 372.412537,614.231934 
	C377.942657,588.369080 383.436951,562.498535 388.887543,536.618835 
	C390.306000,529.883911 389.353394,528.852417 382.195343,528.857849 
	C326.230713,528.900330 270.265961,528.916687 214.301651,529.077881 
	C210.724945,529.088135 208.823135,528.258545 208.126587,524.550354 
	C207.453598,520.967712 206.084518,517.521606 205.179276,513.975220 
	C204.255295,510.355316 202.097183,508.718933 198.335663,508.838287 
	C193.176300,509.001984 187.974747,508.615356 182.863373,509.151672 
	C180.622986,509.386719 178.142914,510.946808 176.615158,512.658203 
	C175.968231,513.382935 176.969116,516.595154 178.140778,517.711121 
	C180.440964,519.901917 182.633575,518.022339 185.213547,517.041931 
	C188.869431,515.652649 193.267792,515.506897 197.211044,515.979492 
	C198.544113,516.139160 199.866058,519.675598 200.502731,521.869263 
	C209.870453,554.146301 219.171509,586.443115 228.295624,618.789612 
	C228.952118,621.117004 228.725174,624.095825 227.864960,626.378296 
	C224.425583,635.504089 220.573624,644.474426 216.708481,653.907043 
	C221.814133,653.958679 225.065811,652.852600 226.488022,647.818970 
	C227.789124,643.214111 230.066406,638.884949 232.126160,633.695374 
M464.140320,554.637451 
	C469.043518,548.379395 475.065979,542.695251 478.627777,535.749329 
	C487.285980,518.864929 478.242676,502.384796 459.540588,499.318359 
	C443.239807,496.645660 428.031433,507.966064 427.250641,523.353455 
	C435.086761,526.288086 435.982208,525.944092 438.841339,518.900879 
	C442.066406,510.956329 450.211823,507.090210 459.509033,509.091125 
	C466.846466,510.670319 470.880249,517.006531 470.214691,525.893433 
	C469.605194,534.032043 465.196106,540.283936 459.829651,545.861816 
	C449.441742,556.658997 438.700165,567.117859 428.407471,578.002808 
	C426.311615,580.219299 425.548523,583.696106 423.799225,587.373413 
	C444.711517,587.373413 463.892212,587.373413 483.026611,587.373413 
	C484.051544,577.828552 483.381744,577.043945 474.586487,577.043457 
	C463.880127,577.042847 453.173737,577.043274 442.241821,577.043274 
	C449.287994,569.830627 456.463531,562.485535 464.140320,554.637451 
M534.373169,570.563660 
	C534.373169,576.163208 534.373169,581.762756 534.373169,587.329712 
	C537.979797,587.329712 540.852905,587.329712 544.222534,587.329712 
	C544.222534,579.646179 544.222534,572.395874 544.222534,564.670959 
	C548.030090,564.670959 551.515320,565.343323 554.597290,564.515198 
	C559.360718,563.235229 556.684204,559.240784 556.968933,555.781860 
	C552.539368,555.781860 548.455261,555.781860 543.754028,555.781860 
	C543.754028,536.955994 543.754028,518.609070 543.754028,500.684570 
	C536.548218,498.455597 532.543579,501.232269 528.672791,506.647583 
	C517.458618,522.336365 505.714081,537.651489 493.939331,552.929565 
	C491.573822,555.998779 490.752136,559.265747 492.685944,561.964905 
	C493.937469,563.711670 497.363129,564.588440 499.843933,564.648804 
	C511.109589,564.922974 522.385681,564.768921 533.975769,564.768921 
	C534.134949,566.692871 534.254272,568.134949 534.373169,570.563660 
M672.936951,547.370239 
	C671.016907,534.749634 664.009521,526.913391 652.875610,524.935913 
	C635.124695,521.783081 621.071167,532.340881 618.772522,550.555969 
	C615.903137,573.293396 629.392273,589.142883 650.894043,587.911499 
	C658.959351,587.449646 666.440308,584.992859 672.070740,578.708313 
	C668.088379,572.602966 668.115662,572.654541 662.083374,575.842957 
	C660.039856,576.922974 657.885376,577.896667 655.670715,578.532593 
	C640.681213,582.836487 627.646484,571.836670 630.239441,556.811157 
	C631.447815,556.694336 632.735535,556.477966 634.026001,556.459595 
	C644.675720,556.307922 655.325745,556.160950 665.976135,556.077454 
	C673.564087,556.018005 673.564453,556.062805 672.936951,547.370239 
M743.170471,550.860352 
	C743.146606,553.521545 742.977905,556.190552 743.122192,558.842590 
	C744.149719,577.729675 756.891907,589.263489 775.701843,587.897705 
	C783.553650,587.327576 790.994080,585.084045 796.373779,578.727844 
	C792.914978,572.651672 792.683044,572.629822 787.086121,575.584473 
	C784.893677,576.741821 782.600464,577.823303 780.228516,578.506897 
	C765.236816,582.827637 752.620361,572.313049 754.517151,556.677856 
	C756.207581,556.601868 757.989746,556.472290 759.773254,556.449646 
	C770.920349,556.308411 782.067688,556.162231 793.215332,556.089233 
	C795.555237,556.073914 797.364868,555.948792 797.806091,552.927429 
	C799.599304,540.647034 790.167053,527.270386 777.942566,525.000610 
	C760.042053,521.677002 746.957031,531.096130 743.170471,550.860352 
M810.892700,573.491455 
	C810.892700,577.912903 810.892700,582.334351 810.892700,586.647827 
	C815.033691,586.647827 818.277283,586.647827 821.898621,586.647827 
	C821.898621,573.828552 821.898499,561.366333 821.898621,548.904053 
	C821.898743,540.137268 826.235840,534.875488 834.871094,533.165222 
	C844.364685,531.284973 850.573975,535.956848 851.199890,545.604797 
	C851.436768,549.255066 851.365051,552.927551 851.372375,556.590027 
	C851.392273,566.547180 851.379150,576.504395 851.379150,586.680542 
	C855.277588,586.680542 858.644531,586.680542 862.012634,586.680542 
	C862.012634,571.725098 862.737610,557.051758 861.800964,542.485291 
	C860.931213,528.957825 849.701294,521.443542 836.647095,524.924194 
	C831.241699,526.365479 826.323914,529.635498 821.276855,532.029968 
	C819.345215,524.338501 819.140686,524.196838 810.891479,525.747070 
	C810.891479,541.263489 810.891479,556.879272 810.892700,573.491455 
M695.627625,540.736694 
	C694.518555,537.953064 693.393616,535.175720 692.303406,532.384705 
	C689.274780,524.630981 687.329285,523.707520 678.735535,526.035461 
	C678.815491,526.508423 678.810791,527.023254 678.990112,527.463135 
	C686.720337,546.428772 694.553528,565.353271 702.140625,584.375854 
	C703.715637,588.324829 706.700928,586.673462 709.237244,587.068054 
	C712.105896,587.514221 713.687866,586.423523 714.823303,583.559387 
	C721.327026,567.152954 728.063477,550.838928 734.698669,534.484436 
	C735.862000,531.617188 736.919556,528.707031 738.070923,525.699219 
	C727.899231,524.409058 727.744263,524.481262 724.263062,533.272339 
	C718.958984,546.666260 713.682617,560.071045 708.361633,573.554504 
	C706.342224,568.242493 704.366150,562.965271 702.330200,557.711182 
	C700.224731,552.277710 698.061157,546.866638 695.627625,540.736694 
M595.364990,564.187256 
	C598.733704,566.597656 599.782959,570.296448 597.789978,573.392395 
	C596.006958,576.162231 592.624695,579.340515 589.698364,579.608093 
	C585.016052,580.036194 579.766052,579.034607 575.409790,577.136780 
	C568.780762,574.248779 567.987732,574.074829 565.466858,580.877869 
	C575.091125,589.331604 590.753540,590.737183 600.726501,584.034485 
	C607.024109,579.802002 609.528076,573.716797 608.803467,566.377014 
	C608.151489,559.772583 603.599243,556.203064 597.858948,553.992188 
	C592.903625,552.083557 587.778809,550.606262 582.858704,548.617310 
	C579.306641,547.181396 576.297729,544.819214 577.044800,540.367188 
	C577.806213,535.829651 581.092712,533.177429 585.379822,533.122864 
	C589.738953,533.067383 594.348389,533.640991 598.428528,535.107117 
	C604.746704,537.377441 604.751404,537.736023 607.433350,531.206482 
	C600.244751,525.205505 592.046570,523.239502 582.823730,524.931030 
	C573.488037,526.643250 567.253113,532.797729 566.470032,541.263000 
	C565.760132,548.935547 569.954590,554.408997 579.347412,557.992676 
	C584.456299,559.941833 589.587463,561.832275 595.364990,564.187256 
M211.566238,664.338989 
	C208.678177,670.518677 209.092010,676.383789 213.785767,681.464172 
	C218.106873,686.141357 223.511322,687.755859 229.697723,685.659485 
	C235.728378,683.615967 240.096863,677.312988 239.958008,671.090637 
	C239.815994,664.726379 235.405960,658.949768 229.170151,656.959717 
	C222.645584,654.877686 216.904633,657.106445 211.566238,664.338989 
M339.261444,659.710571 
	C333.345093,665.280640 332.140656,673.020203 336.172211,679.561584 
	C339.514709,684.984985 347.507996,687.594604 353.834320,685.323547 
	C359.549377,683.271851 362.991852,679.006287 363.774506,673.240540 
	C364.617676,667.028870 362.200928,661.726929 356.638489,658.389709 
	C350.923737,654.961121 345.248169,655.320007 339.261444,659.710571 
M456.178497,668.051514 
	C455.459900,667.187927 454.741302,666.324402 453.958527,665.383667 
	C454.516693,664.711243 454.895569,664.172729 455.354675,663.714661 
	C458.997345,660.079956 461.391541,655.876953 459.205658,650.743164 
	C457.070251,645.727844 452.367920,645.005615 447.490662,644.954529 
	C436.719727,644.841614 436.708008,644.808167 434.516785,655.967834 
	C432.388580,666.806641 430.288635,677.651062 428.085541,688.958679 
	C433.884888,688.958679 439.048157,689.349060 444.131714,688.878601 
	C455.212616,687.853027 461.085938,678.142395 456.178497,668.051514 
M700.016785,664.359619 
	C694.911255,656.064270 693.783203,656.007690 681.830688,663.678894 
	C681.830688,662.083252 681.830688,660.700317 681.830688,657.790833 
	C679.536621,659.393860 677.241943,660.125610 676.945740,661.343384 
	C674.763428,670.318542 672.979980,679.390564 671.072083,688.426941 
	C675.210938,689.841614 676.420349,688.054321 676.934570,684.918518 
	C678.182617,677.307861 679.408203,669.588379 686.706177,665.006226 
	C688.267090,664.026245 690.330872,663.847290 692.163025,663.299255 
	C692.483582,665.136353 693.320740,667.059204 693.032715,668.795349 
	C691.950623,675.318115 690.501465,681.779968 689.175537,688.335144 
	C692.808899,689.802307 694.327576,688.633240 694.923950,685.211487 
	C696.153687,678.155273 697.057556,670.794922 703.440186,666.139282 
	C705.403076,664.707520 708.094482,664.274353 710.452209,663.383911 
	C710.629944,665.610962 711.260864,667.914673 710.899658,670.050537 
	C709.858459,676.207397 708.416992,682.296509 706.799133,690.000671 
	C709.553772,688.729736 712.005066,688.316650 712.220093,687.386536 
	C714.016907,679.614197 715.782043,671.793640 716.757690,663.888977 
	C717.272949,659.714600 713.297668,656.960571 709.332764,658.487488 
	C706.177368,659.702637 703.470215,662.081665 700.016785,664.359619 
M870.530884,687.357849 
	C873.766418,681.752075 877.001953,676.146240 880.557129,669.986633 
	C881.545776,676.801025 882.400391,682.691528 883.401794,689.593628 
	C885.677368,688.775635 888.188599,688.672424 888.885315,687.495300 
	C894.253906,678.425171 899.270752,669.146790 904.487732,659.769409 
	C900.247498,658.150696 898.650574,659.264648 897.308411,662.325134 
	C894.501160,668.726868 891.203125,674.913391 888.106689,681.188293 
	C887.603027,681.023621 887.099365,680.858948 886.595703,680.694275 
	C885.978821,673.498108 885.361938,666.302002 884.743530,659.087952 
	C877.045105,658.113220 878.394043,664.879333 876.202881,668.235962 
	C873.671936,672.113220 871.880493,676.473206 869.768005,680.623596 
	C869.235901,680.473877 868.703796,680.324219 868.171753,680.174561 
	C867.584229,673.182739 866.996704,666.190857 866.385864,658.921509 
	C864.605896,659.036743 863.194641,659.128113 861.005554,659.269897 
	C862.151306,669.336609 863.251526,679.003174 864.440308,689.448120 
	C866.818298,688.835754 868.457703,688.413574 870.530884,687.357849 
M305.500000,666.150085 
	C311.986084,666.150085 318.500458,665.776978 324.949371,666.266541 
	C330.237061,666.667847 332.923981,664.682251 333.698029,659.932861 
	C302.606232,659.932861 271.476227,659.932861 240.279221,659.932861 
	C240.968521,665.065430 243.482376,666.346069 248.123413,666.273010 
	C266.911591,665.976990 285.707153,666.150208 305.500000,666.150085 
M929.406494,684.997253 
	C930.659851,678.964111 932.243896,672.972290 933.005127,666.877686 
	C933.313110,664.411438 932.608337,660.517395 930.953857,659.440735 
	C928.936890,658.128235 925.335815,658.639343 922.605164,659.225281 
	C920.377258,659.703491 918.421753,661.451233 915.124878,663.332581 
	C916.733765,655.289978 918.077820,648.571533 919.418396,641.870239 
	C915.578491,641.374939 914.037109,642.681702 913.492615,646.002319 
	C912.577393,651.583801 911.164124,657.082703 909.998230,662.624329 
	C908.196106,671.189514 906.425842,679.761475 904.662598,688.232239 
	C908.909973,689.768982 909.956116,687.786377 910.457764,684.666870 
	C911.687622,677.019714 913.170044,669.365662 920.538513,664.945312 
	C922.344727,663.861816 924.775085,663.818909 926.918518,663.297546 
	C927.148315,665.318604 927.849731,667.419922 927.521729,669.345947 
	C926.442078,675.685913 924.989380,681.962402 923.672607,688.299255 
	C926.773193,689.170715 928.871765,689.148071 929.406494,684.997253 
M513.873657,678.450745 
	C517.228882,672.222778 520.584167,665.994812 524.008362,659.638977 
	C520.029297,658.258301 518.280273,659.224121 516.811951,662.525635 
	C514.031738,668.776672 510.593658,674.735168 507.428864,680.815125 
	C505.801849,674.680115 505.092987,668.992859 504.553070,663.289612 
	C504.190369,659.457886 502.573761,657.925720 498.733704,659.491394 
	C499.557465,666.340820 499.970978,673.150146 501.270264,679.786011 
	C503.183197,689.556335 497.508698,694.550110 490.332306,698.850525 
	C489.090912,699.594482 487.673584,700.044800 486.416779,700.596069 
	C486.239471,704.319763 488.064850,704.910583 490.762360,703.588318 
	C492.828461,702.575623 495.144440,701.544189 496.578522,699.863525 
	C502.376648,693.068298 507.876373,686.018494 513.873657,678.450745 
M607.797119,698.316406 
	C618.997009,687.248474 626.549866,673.849365 632.992920,659.604004 
	C629.362000,658.152832 627.619873,659.254883 626.150696,662.496582 
	C623.402832,668.560059 620.100403,674.372192 617.028625,680.288879 
	C616.639221,680.097290 616.249817,679.905701 615.860413,679.714172 
	C614.979187,672.870544 614.098022,666.026917 613.187195,658.953125 
	C611.032532,659.094177 609.623413,659.186401 607.907837,659.298645 
	C608.428406,662.947021 608.929871,666.208313 609.350403,669.479980 
	C609.774963,672.783447 610.175415,676.091858 610.488037,679.407410 
	C611.406189,689.143555 608.425903,694.446838 599.559998,698.924011 
	C598.283997,699.568481 596.953491,700.104919 595.816833,700.615601 
	C595.605835,704.116699 597.277527,704.980713 599.792908,703.682190 
	C602.426941,702.322327 604.797241,700.451599 607.797119,698.316406 
M561.366638,689.081116 
	C562.216003,688.112793 563.621338,687.245667 563.819153,686.158813 
	C564.706787,681.282776 565.153381,676.328369 565.949463,671.433167 
	C566.605164,667.401367 567.528381,663.413086 568.332825,659.406128 
	C551.633362,656.603027 540.445862,664.888977 540.536987,680.025513 
	C540.554565,682.934875 542.179504,686.613647 544.320251,688.540894 
	C547.227112,691.157715 550.889099,689.354004 553.897400,687.275269 
	C555.180847,686.388489 556.444824,685.473694 557.522888,684.709656 
	C558.751709,686.466553 559.715881,687.845215 561.366638,689.081116 
M768.589966,687.895752 
	C774.880676,692.015991 778.934082,686.712952 783.867798,683.807434 
	C783.976318,688.200073 785.087708,690.625305 788.233032,688.415955 
	C790.117004,677.941406 791.798767,668.591370 793.536438,658.930420 
	C790.288452,658.581177 787.487305,657.990784 784.696350,658.035767 
	C777.257324,658.155518 772.246765,662.343872 769.000000,668.607727 
	C765.882629,674.621704 763.572083,680.895447 768.589966,687.895752 
M846.941711,680.510986 
	C850.758728,673.612610 854.575806,666.714233 858.445129,659.721375 
	C854.117249,657.990723 852.578918,659.535095 851.164551,662.654663 
	C848.470825,668.596069 845.239929,674.293945 842.232056,680.092957 
	C841.784485,679.958008 841.336914,679.823059 840.889404,679.688049 
	C840.558777,676.302307 840.293274,672.908508 839.879578,669.532959 
	C839.458313,666.096436 838.891174,662.677734 838.337830,658.910095 
	C836.306458,659.035889 834.756165,659.131897 833.036804,659.238403 
	C833.593750,662.887024 834.120789,665.997375 834.531433,669.123047 
	C834.964844,672.421265 835.318054,675.730957 835.652405,679.041077 
	C836.637329,688.791687 833.732727,694.087524 824.910400,698.661255 
	C824.174500,699.042847 823.143494,699.126282 822.679565,699.697510 
	C821.997314,700.537231 821.702576,701.691772 821.242798,702.712158 
	C822.201660,703.091797 823.412903,704.041687 824.074036,703.748901 
	C826.479248,702.684021 829.210083,701.663574 830.896973,699.794861 
	C836.336792,693.768799 841.366516,687.372620 846.941711,680.510986 
M819.499207,657.982483 
	C815.689941,659.570862 811.880676,661.159241 807.831055,662.847900 
	C807.831055,661.441528 807.831055,660.057495 807.831055,657.551453 
	C805.687988,659.064331 803.279846,659.843506 802.960327,661.138184 
	C800.750854,670.089478 798.976685,679.148193 797.074829,688.115112 
	C800.771484,689.558960 802.333130,688.447021 802.824890,685.248169 
	C803.228210,682.624512 803.940857,680.049561 804.388794,677.431274 
	C805.387695,671.592468 808.975952,667.530518 813.660645,664.442566 
	C815.140747,663.466858 817.346191,663.591736 819.219727,663.212952 
	C819.519409,665.054138 820.322388,666.980164 820.029114,668.721436 
	C818.935486,675.213379 817.482239,681.644775 816.163879,688.098816 
	C816.543152,688.483948 816.922363,688.869019 817.301636,689.254089 
	C818.731262,688.289124 821.116089,687.566040 821.431885,686.319031 
	C823.182983,679.404541 824.602844,672.391418 825.784790,665.353088 
	C826.459595,661.334839 824.620178,658.592407 819.499207,657.982483 
M466.400757,670.670776 
	C465.685181,674.431946 464.699402,678.165894 464.317993,681.960632 
	C463.758240,687.529846 467.848114,690.959045 473.171143,689.210815 
	C476.220917,688.209290 478.924225,686.152710 481.885895,684.514465 
	C482.340454,685.891113 482.884521,687.538818 483.394897,689.084595 
	C486.947052,689.342529 488.184052,688.142456 487.817078,684.725952 
	C487.558228,682.316162 488.156158,679.770752 488.626282,677.335022 
	C489.781036,671.351807 491.082886,665.396912 492.315582,659.478760 
	C488.816284,658.329773 487.085724,659.079651 486.650970,662.461060 
	C486.291412,665.257874 486.114471,668.347534 484.777710,670.692444 
	C482.128998,675.338623 478.891785,679.686340 475.527618,683.858948 
	C474.788574,684.775574 472.113556,685.115601 471.045807,684.493286 
	C470.067383,683.923035 469.786652,681.710388 469.695435,680.191528 
	C469.608276,678.739685 470.129578,677.242737 470.438904,675.777283 
	C471.587952,670.333557 472.759857,664.894775 473.903442,659.546387 
	C470.190491,658.290466 468.505615,659.177795 468.102997,662.515503 
	C467.804993,664.986206 467.127808,667.411072 466.400757,670.670776 
M576.769775,688.479797 
	C577.592590,685.095947 578.602783,681.744507 579.195190,678.320801 
	C580.133606,672.898071 582.987488,668.697205 587.333191,665.653198 
	C589.204041,664.342712 591.782043,664.041809 594.038757,663.282227 
	C594.320007,665.589905 595.129089,667.980591 594.781555,670.189331 
	C593.815186,676.330627 592.368164,682.396362 591.111023,688.491943 
	C591.606262,688.857422 592.101562,689.222961 592.596802,689.588440 
	C593.948853,688.490723 596.156677,687.614502 596.507751,686.257751 
	C598.214294,679.663208 599.683044,672.980469 600.734314,666.250610 
	C601.744019,659.786926 597.335449,656.482910 591.149170,658.965637 
	C588.303833,660.107544 585.774597,662.036926 582.791077,663.792175 
	C582.791077,662.145386 582.791077,660.740417 582.791077,657.856567 
	C580.584106,659.372620 578.256104,660.096619 577.958252,661.316284 
	C575.768188,670.285278 573.983887,679.353333 571.975952,688.843018 
	C573.809143,688.843018 574.932434,688.843018 576.769775,688.479797 
M990.529541,668.136353 
	C989.763489,670.842529 988.628540,673.506531 988.313538,676.264221 
	C987.774231,680.985291 988.981445,685.264709 993.451233,687.835693 
	C997.211975,689.998840 1004.284546,689.287659 1007.590149,686.215881 
	C1008.548767,685.325134 1008.591675,683.449036 1009.145508,681.744019 
	C1005.107178,682.845581 1002.049072,684.447815 999.152893,684.195007 
	C997.278259,684.031250 995.010742,681.453857 994.047485,679.422974 
	C992.677734,676.534729 995.664185,676.314758 997.550781,675.394836 
	C1001.678162,673.382324 1006.071838,671.572144 1009.535095,668.691467 
	C1011.185364,667.318726 1012.132812,663.141663 1011.246277,661.236450 
	C1010.381592,659.378174 1006.772461,657.838013 1004.369263,657.839539 
	C997.888000,657.843750 993.886353,662.156555 990.529541,668.136353 
M958.142883,670.669006 
	C961.412842,667.917908 963.826965,664.761841 961.406189,660.361145 
	C959.733704,657.320557 953.956848,656.724060 949.551941,659.028076 
	C943.164062,662.369263 939.912292,668.019958 938.811035,674.905151 
	C938.012817,679.895325 938.628357,684.752014 943.497498,687.596924 
	C948.335754,690.423706 953.202148,689.096436 957.606262,686.376831 
	C958.619263,685.751282 958.748779,683.695190 959.705933,681.199402 
	C947.715576,686.324707 943.919556,684.884705 944.387573,677.084961 
	C948.874695,675.035583 953.208496,673.056213 958.142883,670.669006 
M729.471802,661.883606 
	C725.218018,665.964172 722.691101,670.938354 722.246643,676.804932 
	C721.888367,681.534790 722.921143,685.985962 727.618774,688.228271 
	C732.539917,690.577332 737.421570,689.392639 741.756348,686.505005 
	C742.659851,685.903198 742.591492,683.842468 743.084045,682.040527 
	C739.088257,683.255554 736.207275,684.921082 733.484741,684.693298 
	C731.537598,684.530273 729.114014,682.168335 728.134766,680.180664 
	C726.665710,677.198730 729.451538,676.709290 731.723877,675.740234 
	C735.791809,674.005432 740.061829,672.179504 743.314819,669.327820 
	C745.039062,667.816284 746.069763,663.423401 745.096252,661.510620 
	C744.117188,659.586731 740.261475,658.262512 737.669922,658.268555 
	C735.117371,658.274475 732.569336,660.278076 729.471802,661.883606 
M645.008667,664.586182 
	C647.103577,664.083435 649.266479,663.763062 651.270142,663.015686 
	C652.671509,662.492981 653.855164,661.386597 655.136047,660.540894 
	C654.907410,660.116028 654.678711,659.691162 654.450073,659.266357 
	C651.886292,659.066589 649.322510,658.866882 646.551514,658.651001 
	C646.817261,656.087341 647.048584,653.856201 647.336365,651.080383 
	C645.335022,651.804138 643.242188,651.908264 642.427673,652.982056 
	C640.270447,655.825867 638.666260,659.089050 636.637512,662.532410 
	C637.147888,662.770630 638.355774,663.334351 639.727356,663.974548 
	C638.641785,669.116943 637.587585,673.979187 636.595642,678.854065 
	C635.897278,682.286072 634.827087,685.998047 638.376526,688.447815 
	C642.033875,690.972107 645.823181,689.554321 649.093262,687.447693 
	C650.245117,686.705627 650.536011,684.627075 651.219971,683.158691 
	C649.299072,682.860474 648.761353,683.306335 648.149475,683.463684 
	C646.298706,683.939880 644.419067,684.304077 642.550781,684.711914 
	C642.317993,682.832703 641.650757,680.884216 641.937439,679.087891 
	C642.669617,674.499023 643.826904,669.977966 645.008667,664.586182 
M979.213440,660.900330 
	C974.593262,664.220337 978.425415,657.627686 975.820190,658.035645 
	C974.331238,658.596802 972.077820,659.343201 971.783630,660.562195 
	C969.621216,669.524719 967.850403,678.581787 965.983459,687.479492 
	C969.850708,688.875549 971.285645,687.579041 971.752930,684.437439 
	C972.168274,681.644897 972.570068,678.777527 973.548706,676.156250 
	C975.897034,669.865967 978.664062,663.783936 986.900452,662.953308 
	C987.098572,661.434937 987.300049,659.891113 987.698242,656.839661 
	C984.335388,658.333252 982.058899,659.344299 979.213440,660.900330 
M667.105713,662.123718 
	C666.753662,661.085388 666.401611,660.046997 666.049500,659.008667 
	C664.827087,659.536865 662.702759,659.851624 662.519531,660.625732 
	C660.324951,669.899414 658.418213,679.241272 656.459473,688.456238 
	C660.285583,689.683044 661.673584,688.500183 662.268555,685.319214 
	C663.671265,677.818481 665.378723,670.374634 667.105713,662.123718 
M668.779663,651.055603 
	C669.282043,649.204346 669.784363,647.353027 670.286682,645.501770 
	C669.101501,645.227722 667.473389,644.343811 666.827820,644.812683 
	C665.657471,645.662842 664.237244,647.501465 664.474854,648.587708 
	C664.718689,649.702698 666.821777,650.411072 668.779663,651.055603 
z"/>
<path fill="#5065A8" opacity="1.000000" stroke="none" 
	d="
M232.019836,634.064819 
	C230.066406,638.884949 227.789124,643.214111 226.488022,647.818970 
	C225.065811,652.852600 221.814133,653.958679 216.708481,653.907043 
	C220.573624,644.474426 224.425583,635.504089 227.864960,626.378296 
	C228.725174,624.095825 228.952118,621.117004 228.295624,618.789612 
	C219.171509,586.443115 209.870453,554.146301 200.502731,521.869263 
	C199.866058,519.675598 198.544113,516.139160 197.211044,515.979492 
	C193.267792,515.506897 188.869431,515.652649 185.213547,517.041931 
	C182.633575,518.022339 180.440964,519.901917 178.140778,517.711121 
	C176.969116,516.595154 175.968231,513.382935 176.615158,512.658203 
	C178.142914,510.946808 180.622986,509.386719 182.863373,509.151672 
	C187.974747,508.615356 193.176300,509.001984 198.335663,508.838287 
	C202.097183,508.718933 204.255295,510.355316 205.179276,513.975220 
	C206.084518,517.521606 207.453598,520.967712 208.126587,524.550354 
	C208.823135,528.258545 210.724945,529.088135 214.301651,529.077881 
	C270.265961,528.916687 326.230713,528.900330 382.195343,528.857849 
	C389.353394,528.852417 390.306000,529.883911 388.887543,536.618835 
	C383.436951,562.498535 377.942657,588.369080 372.412537,614.231934 
	C370.890106,621.351685 369.265411,622.602173 361.856354,622.605347 
	C322.880951,622.621765 283.905548,622.612732 244.930161,622.612549 
	C236.746704,622.612488 236.749619,622.613708 233.700607,630.029907 
	C233.195053,631.259644 232.651917,632.473938 232.019836,634.064819 
z"/>
<path fill="#5569AA" opacity="1.000000" stroke="none" 
	d="
M463.889709,554.888916 
	C456.463531,562.485535 449.287994,569.830627 442.241821,577.043274 
	C453.173737,577.043274 463.880127,577.042847 474.586487,577.043457 
	C483.381744,577.043945 484.051544,577.828552 483.026611,587.373413 
	C463.892212,587.373413 444.711517,587.373413 423.799225,587.373413 
	C425.548523,583.696106 426.311615,580.219299 428.407471,578.002808 
	C438.700165,567.117859 449.441742,556.658997 459.829651,545.861816 
	C465.196106,540.283936 469.605194,534.032043 470.214691,525.893433 
	C470.880249,517.006531 466.846466,510.670319 459.509033,509.091125 
	C450.211823,507.090210 442.066406,510.956329 438.841339,518.900879 
	C435.982208,525.944092 435.086761,526.288086 427.250641,523.353455 
	C428.031433,507.966064 443.239807,496.645660 459.540588,499.318359 
	C478.242676,502.384796 487.285980,518.864929 478.627777,535.749329 
	C475.065979,542.695251 469.043518,548.379395 463.889709,554.888916 
z"/>
<path fill="#5469AA" opacity="1.000000" stroke="none" 
	d="
M534.373413,570.070312 
	C534.254272,568.134949 534.134949,566.692871 533.975769,564.768921 
	C522.385681,564.768921 511.109589,564.922974 499.843933,564.648804 
	C497.363129,564.588440 493.937469,563.711670 492.685944,561.964905 
	C490.752136,559.265747 491.573822,555.998779 493.939331,552.929565 
	C505.714081,537.651489 517.458618,522.336365 528.672791,506.647583 
	C532.543579,501.232269 536.548218,498.455597 543.754028,500.684570 
	C543.754028,518.609070 543.754028,536.955994 543.754028,555.781860 
	C548.455261,555.781860 552.539368,555.781860 556.968933,555.781860 
	C556.684204,559.240784 559.360718,563.235229 554.597290,564.515198 
	C551.515320,565.343323 548.030090,564.670959 544.222534,564.670959 
	C544.222534,572.395874 544.222534,579.646179 544.222534,587.329712 
	C540.852905,587.329712 537.979797,587.329712 534.373169,587.329712 
	C534.373169,581.762756 534.373169,576.163208 534.373413,570.070312 
M534.604370,554.045776 
	C534.604370,540.804260 534.604370,527.562805 534.604370,513.067444 
	C523.892944,527.703796 513.824524,541.461487 503.183502,556.001587 
	C513.625427,556.001587 522.754822,556.029846 531.883423,555.955383 
	C532.741699,555.948425 533.594727,555.294861 534.604370,554.045776 
z"/>
<path fill="#5468A9" opacity="1.000000" stroke="none" 
	d="
M672.965759,547.782227 
	C673.564453,556.062805 673.564087,556.018005 665.976135,556.077454 
	C655.325745,556.160950 644.675720,556.307922 634.026001,556.459595 
	C632.735535,556.477966 631.447815,556.694336 630.239441,556.811157 
	C627.646484,571.836670 640.681213,582.836487 655.670715,578.532593 
	C657.885376,577.896667 660.039856,576.922974 662.083374,575.842957 
	C668.115662,572.654541 668.088379,572.602966 672.070740,578.708313 
	C666.440308,584.992859 658.959351,587.449646 650.894043,587.911499 
	C629.392273,589.142883 615.903137,573.293396 618.772522,550.555969 
	C621.071167,532.340881 635.124695,521.783081 652.875610,524.935913 
	C664.009521,526.913391 671.016907,534.749634 672.965759,547.782227 
M643.510620,549.781555 
	C649.934448,549.781555 656.358337,549.781555 663.076477,549.781555 
	C663.429321,543.063965 661.552124,537.938293 656.239136,534.752441 
	C650.009888,531.017212 643.466431,531.416443 637.433716,535.251526 
	C632.397705,538.452881 630.421265,543.498230 629.799255,549.781250 
	C634.594421,549.781250 638.555359,549.781250 643.510620,549.781555 
z"/>
<path fill="#5468A9" opacity="1.000000" stroke="none" 
	d="
M743.216797,550.412415 
	C746.957031,531.096130 760.042053,521.677002 777.942566,525.000610 
	C790.167053,527.270386 799.599304,540.647034 797.806091,552.927429 
	C797.364868,555.948792 795.555237,556.073914 793.215332,556.089233 
	C782.067688,556.162231 770.920349,556.308411 759.773254,556.449646 
	C757.989746,556.472290 756.207581,556.601868 754.517151,556.677856 
	C752.620361,572.313049 765.236816,582.827637 780.228516,578.506897 
	C782.600464,577.823303 784.893677,576.741821 787.086121,575.584473 
	C792.683044,572.629822 792.914978,572.651672 796.373779,578.727844 
	C790.994080,585.084045 783.553650,587.327576 775.701843,587.897705 
	C756.891907,589.263489 744.149719,577.729675 743.122192,558.842590 
	C742.977905,556.190552 743.146606,553.521545 743.216797,550.412415 
M771.516113,532.234253 
	C759.996643,534.215820 754.777344,539.533936 754.730957,549.507812 
	C765.636353,549.507812 776.539551,549.507812 787.414246,549.507812 
	C788.366333,539.801575 783.442688,534.264954 771.516113,532.234253 
z"/>
<path fill="#5368A9" opacity="1.000000" stroke="none" 
	d="
M810.892090,572.993225 
	C810.891479,556.879272 810.891479,541.263489 810.891479,525.747070 
	C819.140686,524.196838 819.345215,524.338501 821.276855,532.029968 
	C826.323914,529.635498 831.241699,526.365479 836.647095,524.924194 
	C849.701294,521.443542 860.931213,528.957825 861.800964,542.485291 
	C862.737610,557.051758 862.012634,571.725098 862.012634,586.680542 
	C858.644531,586.680542 855.277588,586.680542 851.379150,586.680542 
	C851.379150,576.504395 851.392273,566.547180 851.372375,556.590027 
	C851.365051,552.927551 851.436768,549.255066 851.199890,545.604797 
	C850.573975,535.956848 844.364685,531.284973 834.871094,533.165222 
	C826.235840,534.875488 821.898743,540.137268 821.898621,548.904053 
	C821.898499,561.366333 821.898621,573.828552 821.898621,586.647827 
	C818.277283,586.647827 815.033691,586.647827 810.892700,586.647827 
	C810.892700,582.334351 810.892700,577.912903 810.892090,572.993225 
z"/>
<path fill="#566AAA" opacity="1.000000" stroke="none" 
	d="
M695.775330,541.091248 
	C698.061157,546.866638 700.224731,552.277710 702.330200,557.711182 
	C704.366150,562.965271 706.342224,568.242493 708.361633,573.554504 
	C713.682617,560.071045 718.958984,546.666260 724.263062,533.272339 
	C727.744263,524.481262 727.899231,524.409058 738.070923,525.699219 
	C736.919556,528.707031 735.862000,531.617188 734.698669,534.484436 
	C728.063477,550.838928 721.327026,567.152954 714.823303,583.559387 
	C713.687866,586.423523 712.105896,587.514221 709.237244,587.068054 
	C706.700928,586.673462 703.715637,588.324829 702.140625,584.375854 
	C694.553528,565.353271 686.720337,546.428772 678.990112,527.463135 
	C678.810791,527.023254 678.815491,526.508423 678.735535,526.035461 
	C687.329285,523.707520 689.274780,524.630981 692.303406,532.384705 
	C693.393616,535.175720 694.518555,537.953064 695.775330,541.091248 
z"/>
<path fill="#5469AA" opacity="1.000000" stroke="none" 
	d="
M595.036743,563.968262 
	C589.587463,561.832275 584.456299,559.941833 579.347412,557.992676 
	C569.954590,554.408997 565.760132,548.935547 566.470032,541.263000 
	C567.253113,532.797729 573.488037,526.643250 582.823730,524.931030 
	C592.046570,523.239502 600.244751,525.205505 607.433350,531.206482 
	C604.751404,537.736023 604.746704,537.377441 598.428528,535.107117 
	C594.348389,533.640991 589.738953,533.067383 585.379822,533.122864 
	C581.092712,533.177429 577.806213,535.829651 577.044800,540.367188 
	C576.297729,544.819214 579.306641,547.181396 582.858704,548.617310 
	C587.778809,550.606262 592.903625,552.083557 597.858948,553.992188 
	C603.599243,556.203064 608.151489,559.772583 608.803467,566.377014 
	C609.528076,573.716797 607.024109,579.802002 600.726501,584.034485 
	C590.753540,590.737183 575.091125,589.331604 565.466858,580.877869 
	C567.987732,574.074829 568.780762,574.248779 575.409790,577.136780 
	C579.766052,579.034607 585.016052,580.036194 589.698364,579.608093 
	C592.624695,579.340515 596.006958,576.162231 597.789978,573.392395 
	C599.782959,570.296448 598.733704,566.597656 595.036743,563.968262 
z"/>
<path fill="#5267A9" opacity="1.000000" stroke="none" 
	d="
M211.741852,663.998230 
	C216.904633,657.106445 222.645584,654.877686 229.170151,656.959717 
	C235.405960,658.949768 239.815994,664.726379 239.958008,671.090637 
	C240.096863,677.312988 235.728378,683.615967 229.697723,685.659485 
	C223.511322,687.755859 218.106873,686.141357 213.785767,681.464172 
	C209.092010,676.383789 208.678177,670.518677 211.741852,663.998230 
z"/>
<path fill="#5267A9" opacity="1.000000" stroke="none" 
	d="
M339.543671,659.471802 
	C345.248169,655.320007 350.923737,654.961121 356.638489,658.389709 
	C362.200928,661.726929 364.617676,667.028870 363.774506,673.240540 
	C362.991852,679.006287 359.549377,683.271851 353.834320,685.323547 
	C347.507996,687.594604 339.514709,684.984985 336.172211,679.561584 
	C332.140656,673.020203 333.345093,665.280640 339.543671,659.471802 
z"/>
<path fill="#576BAB" opacity="1.000000" stroke="none" 
	d="
M456.428223,668.359314 
	C461.085938,678.142395 455.212616,687.853027 444.131714,688.878601 
	C439.048157,689.349060 433.884888,688.958679 428.085541,688.958679 
	C430.288635,677.651062 432.388580,666.806641 434.516785,655.967834 
	C436.708008,644.808167 436.719727,644.841614 447.490662,644.954529 
	C452.367920,645.005615 457.070251,645.727844 459.205658,650.743164 
	C461.391541,655.876953 458.997345,660.079956 455.354675,663.714661 
	C454.895569,664.172729 454.516693,664.711243 453.958527,665.383667 
	C454.741302,666.324402 455.459900,667.187927 456.428223,668.359314 
M446.729309,683.636292 
	C447.021912,683.477356 447.325653,683.335754 447.605377,683.156738 
	C452.507263,680.018372 454.256073,675.172852 451.831909,671.459656 
	C450.328125,669.156311 440.836853,667.052856 438.371796,668.631958 
	C437.661896,669.086731 437.133240,670.153381 436.940796,671.031372 
	C435.986298,675.386780 435.172028,679.772827 434.129578,685.053833 
	C438.488647,684.626282 442.228821,684.259521 446.729309,683.636292 
M453.999359,652.936462 
	C451.264221,648.172974 444.918488,647.704651 442.862152,649.741455 
	C439.786865,652.787659 439.424072,658.572388 437.848114,663.373047 
	C449.470428,664.973206 453.636841,662.243835 453.999359,652.936462 
z"/>
<path fill="#5B6EAC" opacity="1.000000" stroke="none" 
	d="
M700.290405,664.151794 
	C703.470215,662.081665 706.177368,659.702637 709.332764,658.487488 
	C713.297668,656.960571 717.272949,659.714600 716.757690,663.888977 
	C715.782043,671.793640 714.016907,679.614197 712.220093,687.386536 
	C712.005066,688.316650 709.553772,688.729736 706.799133,690.000671 
	C708.416992,682.296509 709.858459,676.207397 710.899658,670.050537 
	C711.260864,667.914673 710.629944,665.610962 710.452271,663.383911 
	C708.094482,664.274353 705.403076,664.707520 703.440186,666.139282 
	C697.057556,670.794922 696.153687,678.155273 694.923950,685.211487 
	C694.327576,688.633240 692.808899,689.802307 689.175537,688.335144 
	C690.501465,681.779968 691.950623,675.318115 693.032715,668.795349 
	C693.320740,667.059204 692.483582,665.136353 692.163025,663.299255 
	C690.330872,663.847290 688.267090,664.026245 686.706177,665.006226 
	C679.408203,669.588379 678.182617,677.307861 676.934570,684.918518 
	C676.420349,688.054321 675.210938,689.841614 671.072083,688.426941 
	C672.979980,679.390564 674.763428,670.318542 676.945740,661.343384 
	C677.241943,660.125610 679.536621,659.393860 681.830688,657.790833 
	C681.830688,660.700317 681.830688,662.083252 681.830688,663.678894 
	C693.783203,656.007690 694.911255,656.064270 700.290405,664.151794 
z"/>
<path fill="#596DAB" opacity="1.000000" stroke="none" 
	d="
M870.314026,687.674622 
	C868.457703,688.413574 866.818298,688.835754 864.440308,689.448120 
	C863.251526,679.003174 862.151306,669.336609 861.005554,659.269897 
	C863.194641,659.128113 864.605896,659.036743 866.385864,658.921509 
	C866.996704,666.190857 867.584229,673.182739 868.171753,680.174561 
	C868.703796,680.324219 869.235901,680.473877 869.768005,680.623596 
	C871.880493,676.473206 873.671936,672.113220 876.202881,668.235962 
	C878.394043,664.879333 877.045105,658.113220 884.743530,659.087952 
	C885.361938,666.302002 885.978821,673.498108 886.595703,680.694275 
	C887.099365,680.858948 887.603027,681.023621 888.106689,681.188293 
	C891.203125,674.913391 894.501160,668.726868 897.308411,662.325134 
	C898.650574,659.264648 900.247498,658.150696 904.487732,659.769409 
	C899.270752,669.146790 894.253906,678.425171 888.885315,687.495300 
	C888.188599,688.672424 885.677368,688.775635 883.401794,689.593628 
	C882.400391,682.691528 881.545776,676.801025 880.557129,669.986633 
	C877.001953,676.146240 873.766418,681.752075 870.314026,687.674622 
z"/>
<path fill="#5065A8" opacity="1.000000" stroke="none" 
	d="
M305.000000,666.150146 
	C285.707153,666.150208 266.911591,665.976990 248.123413,666.273010 
	C243.482376,666.346069 240.968521,665.065430 240.279221,659.932861 
	C271.476227,659.932861 302.606232,659.932861 333.698029,659.932861 
	C332.923981,664.682251 330.237061,666.667847 324.949371,666.266541 
	C318.500458,665.776978 311.986084,666.150085 305.000000,666.150146 
z"/>
<path fill="#5B6EAC" opacity="1.000000" stroke="none" 
	d="
M929.307007,685.380676 
	C928.871765,689.148071 926.773193,689.170715 923.672607,688.299255 
	C924.989380,681.962402 926.442078,675.685913 927.521729,669.345947 
	C927.849731,667.419922 927.148315,665.318604 926.918518,663.297546 
	C924.775085,663.818909 922.344727,663.861816 920.538513,664.945312 
	C913.170044,669.365662 911.687622,677.019714 910.457764,684.666870 
	C909.956116,687.786377 908.909973,689.768982 904.662598,688.232239 
	C906.425842,679.761475 908.196106,671.189514 909.998230,662.624329 
	C911.164124,657.082703 912.577393,651.583801 913.492615,646.002319 
	C914.037109,642.681702 915.578491,641.374939 919.418396,641.870239 
	C918.077820,648.571533 916.733765,655.289978 915.124878,663.332581 
	C918.421753,661.451233 920.377258,659.703491 922.605164,659.225281 
	C925.335815,658.639343 928.936890,658.128235 930.953857,659.440735 
	C932.608337,660.517395 933.313110,664.411438 933.005127,666.877686 
	C932.243896,672.972290 930.659851,678.964111 929.307007,685.380676 
z"/>
<path fill="#596DAB" opacity="1.000000" stroke="none" 
	d="
M513.679932,678.756714 
	C507.876373,686.018494 502.376648,693.068298 496.578522,699.863525 
	C495.144440,701.544189 492.828461,702.575623 490.762360,703.588318 
	C488.064850,704.910583 486.239471,704.319763 486.416779,700.596069 
	C487.673584,700.044800 489.090912,699.594482 490.332306,698.850525 
	C497.508698,694.550110 503.183197,689.556335 501.270264,679.786011 
	C499.970978,673.150146 499.557465,666.340820 498.733704,659.491394 
	C502.573761,657.925720 504.190369,659.457886 504.553070,663.289612 
	C505.092987,668.992859 505.801849,674.680115 507.428864,680.815125 
	C510.593658,674.735168 514.031738,668.776672 516.811951,662.525635 
	C518.280273,659.224121 520.029297,658.258301 524.008362,659.638977 
	C520.584167,665.994812 517.228882,672.222778 513.679932,678.756714 
z"/>
<path fill="#586CAB" opacity="1.000000" stroke="none" 
	d="
M607.539917,698.560303 
	C604.797241,700.451599 602.426941,702.322327 599.792908,703.682190 
	C597.277527,704.980713 595.605835,704.116699 595.816833,700.615601 
	C596.953491,700.104919 598.283997,699.568481 599.559998,698.924011 
	C608.425903,694.446838 611.406189,689.143555 610.488037,679.407410 
	C610.175415,676.091858 609.774963,672.783447 609.350403,669.479980 
	C608.929871,666.208313 608.428406,662.947021 607.907837,659.298645 
	C609.623413,659.186401 611.032532,659.094177 613.187195,658.953125 
	C614.098022,666.026917 614.979187,672.870544 615.860413,679.714172 
	C616.249817,679.905701 616.639221,680.097290 617.028625,680.288879 
	C620.100403,674.372192 623.402832,668.560059 626.150696,662.496582 
	C627.619873,659.254883 629.362000,658.152832 632.992920,659.604004 
	C626.549866,673.849365 618.997009,687.248474 607.539917,698.560303 
z"/>
<path fill="#596DAB" opacity="1.000000" stroke="none" 
	d="
M561.023315,689.152466 
	C559.715881,687.845215 558.751709,686.466553 557.522888,684.709656 
	C556.444824,685.473694 555.180847,686.388489 553.897400,687.275269 
	C550.889099,689.354004 547.227112,691.157715 544.320251,688.540894 
	C542.179504,686.613647 540.554565,682.934875 540.536987,680.025513 
	C540.445862,664.888977 551.633362,656.603027 568.332825,659.406128 
	C567.528381,663.413086 566.605164,667.401367 565.949463,671.433167 
	C565.153381,676.328369 564.706787,681.282776 563.819153,686.158813 
	C563.621338,687.245667 562.216003,688.112793 561.023315,689.152466 
M553.898438,682.558899 
	C558.313049,678.467346 560.978088,673.427856 561.769592,667.480225 
	C561.967651,665.992554 562.016174,663.452759 561.292908,663.094849 
	C559.892517,662.401794 557.670715,662.387634 556.183167,663.019409 
	C549.344849,665.923462 546.518127,671.754456 545.983582,678.749084 
	C545.836548,680.672852 546.948120,682.692810 547.482178,684.668701 
	C549.432007,684.127380 551.381836,683.586121 553.898438,682.558899 
z"/>
<path fill="#596DAB" opacity="1.000000" stroke="none" 
	d="
M768.324097,687.643555 
	C763.572083,680.895447 765.882629,674.621704 769.000000,668.607727 
	C772.246765,662.343872 777.257324,658.155518 784.696350,658.035767 
	C787.487305,657.990784 790.288452,658.581177 793.536438,658.930420 
	C791.798767,668.591370 790.117004,677.941406 788.233032,688.415955 
	C785.087708,690.625305 783.976318,688.200073 783.867798,683.807434 
	C778.934082,686.712952 774.880676,692.015991 768.324097,687.643555 
M787.452148,662.943848 
	C784.520447,663.362915 781.047180,662.928589 778.767700,664.375366 
	C773.715576,667.581726 771.501343,672.985657 771.203674,678.870667 
	C771.107666,680.768250 772.422974,682.737183 773.092651,684.673523 
	C775.025757,683.996887 777.319336,683.770996 778.828552,682.564270 
	C784.817078,677.775879 786.823975,670.932861 787.452148,662.943848 
z"/>
<path fill="#586CAB" opacity="1.000000" stroke="none" 
	d="
M846.748047,680.815063 
	C841.366516,687.372620 836.336792,693.768799 830.896973,699.794861 
	C829.210083,701.663574 826.479248,702.684021 824.074036,703.748901 
	C823.412903,704.041687 822.201660,703.091797 821.242798,702.712158 
	C821.702576,701.691772 821.997314,700.537231 822.679565,699.697510 
	C823.143494,699.126282 824.174500,699.042847 824.910400,698.661255 
	C833.732727,694.087524 836.637329,688.791687 835.652405,679.041077 
	C835.318054,675.730957 834.964844,672.421265 834.531433,669.123047 
	C834.120789,665.997375 833.593750,662.887024 833.036804,659.238403 
	C834.756165,659.131897 836.306458,659.035889 838.337830,658.910095 
	C838.891174,662.677734 839.458313,666.096436 839.879578,669.532959 
	C840.293274,672.908508 840.558777,676.302307 840.889404,679.688049 
	C841.336914,679.823059 841.784485,679.958008 842.232056,680.092957 
	C845.239929,674.293945 848.470825,668.596069 851.164551,662.654663 
	C852.578918,659.535095 854.117249,657.990723 858.445129,659.721375 
	C854.575806,666.714233 850.758728,673.612610 846.748047,680.815063 
z"/>
<path fill="#5B6EAC" opacity="1.000000" stroke="none" 
	d="
M819.902100,657.985535 
	C824.620178,658.592407 826.459595,661.334839 825.784790,665.353088 
	C824.602844,672.391418 823.182983,679.404541 821.431885,686.319031 
	C821.116089,687.566040 818.731262,688.289124 817.301636,689.254089 
	C816.922363,688.869019 816.543152,688.483948 816.163879,688.098816 
	C817.482239,681.644775 818.935486,675.213379 820.029114,668.721436 
	C820.322388,666.980164 819.519409,665.054138 819.219727,663.212891 
	C817.346191,663.591736 815.140747,663.466858 813.660645,664.442566 
	C808.975952,667.530518 805.387695,671.592468 804.388794,677.431274 
	C803.940857,680.049561 803.228210,682.624512 802.824890,685.248169 
	C802.333130,688.447021 800.771484,689.558960 797.074829,688.115112 
	C798.976685,679.148193 800.750854,670.089478 802.960327,661.138184 
	C803.279846,659.843506 805.687988,659.064331 807.831055,657.551453 
	C807.831055,660.057495 807.831055,661.441528 807.831055,662.847900 
	C811.880676,661.159241 815.689941,659.570862 819.902100,657.985535 
z"/>
<path fill="#596DAB" opacity="1.000000" stroke="none" 
	d="
M466.510132,670.263550 
	C467.127808,667.411072 467.804993,664.986206 468.102997,662.515503 
	C468.505615,659.177795 470.190491,658.290466 473.903442,659.546387 
	C472.759857,664.894775 471.587952,670.333557 470.438904,675.777283 
	C470.129578,677.242737 469.608276,678.739685 469.695435,680.191528 
	C469.786652,681.710388 470.067383,683.923035 471.045807,684.493286 
	C472.113556,685.115601 474.788574,684.775574 475.527618,683.858948 
	C478.891785,679.686340 482.128998,675.338623 484.777710,670.692444 
	C486.114471,668.347534 486.291412,665.257874 486.650970,662.461060 
	C487.085724,659.079651 488.816284,658.329773 492.315582,659.478760 
	C491.082886,665.396912 489.781036,671.351807 488.626282,677.335022 
	C488.156158,679.770752 487.558228,682.316162 487.817078,684.725952 
	C488.184052,688.142456 486.947052,689.342529 483.394897,689.084595 
	C482.884521,687.538818 482.340454,685.891113 481.885895,684.514465 
	C478.924225,686.152710 476.220917,688.209290 473.171143,689.210815 
	C467.848114,690.959045 463.758240,687.529846 464.317993,681.960632 
	C464.699402,678.165894 465.685181,674.431946 466.510132,670.263550 
z"/>
<path fill="#5B6EAC" opacity="1.000000" stroke="none" 
	d="
M576.412720,688.661377 
	C574.932434,688.843018 573.809143,688.843018 571.975952,688.843018 
	C573.983887,679.353333 575.768188,670.285278 577.958252,661.316284 
	C578.256104,660.096619 580.584106,659.372620 582.791077,657.856567 
	C582.791077,660.740417 582.791077,662.145386 582.791077,663.792175 
	C585.774597,662.036926 588.303833,660.107544 591.149170,658.965637 
	C597.335449,656.482910 601.744019,659.786926 600.734314,666.250610 
	C599.683044,672.980469 598.214294,679.663208 596.507751,686.257751 
	C596.156677,687.614502 593.948853,688.490723 592.596802,689.588440 
	C592.101562,689.222961 591.606262,688.857422 591.111023,688.491943 
	C592.368164,682.396362 593.815186,676.330627 594.781555,670.189331 
	C595.129089,667.980591 594.320007,665.589905 594.038818,663.282227 
	C591.782043,664.041809 589.204041,664.342712 587.333191,665.653198 
	C582.987488,668.697205 580.133606,672.898071 579.195190,678.320801 
	C578.602783,681.744507 577.592590,685.095947 576.412720,688.661377 
z"/>
<path fill="#596DAB" opacity="1.000000" stroke="none" 
	d="
M990.697266,667.800049 
	C993.886353,662.156555 997.888000,657.843750 1004.369263,657.839539 
	C1006.772461,657.838013 1010.381592,659.378174 1011.246277,661.236450 
	C1012.132812,663.141663 1011.185364,667.318726 1009.535095,668.691467 
	C1006.071838,671.572144 1001.678162,673.382324 997.550781,675.394836 
	C995.664185,676.314758 992.677734,676.534729 994.047485,679.422974 
	C995.010742,681.453857 997.278259,684.031250 999.152893,684.195007 
	C1002.049072,684.447815 1005.107178,682.845581 1009.145508,681.744019 
	C1008.591675,683.449036 1008.548767,685.325134 1007.590149,686.215881 
	C1004.284546,689.287659 997.211975,689.998840 993.451233,687.835693 
	C988.981445,685.264709 987.774231,680.985291 988.313538,676.264221 
	C988.628540,673.506531 989.763489,670.842529 990.697266,667.800049 
M1003.903320,668.505676 
	C1004.681091,666.723267 1005.458801,664.940796 1006.236511,663.158264 
	C1005.061218,662.823730 1003.813171,662.052673 1002.723755,662.234070 
	C999.011780,662.852112 995.581238,667.652405 995.576355,672.376892 
	C998.283264,671.160583 1000.783936,670.036926 1003.903320,668.505676 
z"/>
<path fill="#576BAB" opacity="1.000000" stroke="none" 
	d="
M957.842529,670.872925 
	C953.208496,673.056213 948.874695,675.035583 944.387573,677.084961 
	C943.919556,684.884705 947.715576,686.324707 959.705933,681.199402 
	C958.748779,683.695190 958.619263,685.751282 957.606262,686.376831 
	C953.202148,689.096436 948.335754,690.423706 943.497498,687.596924 
	C938.628357,684.752014 938.012817,679.895325 938.811035,674.905151 
	C939.912292,668.019958 943.164062,662.369263 949.551941,659.028076 
	C953.956848,656.724060 959.733704,657.320557 961.406189,660.361145 
	C963.826965,664.761841 961.412842,667.917908 957.842529,670.872925 
M948.687805,671.176453 
	C950.733643,670.129517 953.124268,669.440369 954.708130,667.914001 
	C955.824646,666.837952 955.845764,664.625244 956.356018,662.920105 
	C954.692078,662.918640 952.442139,662.227600 951.476562,663.048035 
	C948.836304,665.291443 946.737122,668.171692 944.423645,670.799744 
	C944.703247,671.138733 944.982910,671.477783 945.262512,671.816772 
	C946.174194,671.702820 947.085938,671.588806 948.687805,671.176453 
z"/>
<path fill="#596DAB" opacity="1.000000" stroke="none" 
	d="
M729.745605,661.644409 
	C732.569336,660.278076 735.117371,658.274475 737.669922,658.268555 
	C740.261475,658.262512 744.117188,659.586731 745.096252,661.510620 
	C746.069763,663.423401 745.039062,667.816284 743.314819,669.327820 
	C740.061829,672.179504 735.791809,674.005432 731.723877,675.740234 
	C729.451538,676.709290 726.665710,677.198730 728.134766,680.180664 
	C729.114014,682.168335 731.537598,684.530273 733.484741,684.693298 
	C736.207275,684.921082 739.088257,683.255554 743.084045,682.040527 
	C742.591492,683.842468 742.659851,685.903198 741.756348,686.505005 
	C737.421570,689.392639 732.539917,690.577332 727.618774,688.228271 
	C722.921143,685.985962 721.888367,681.534790 722.246643,676.804932 
	C722.691101,670.938354 725.218018,665.964172 729.745605,661.644409 
M740.646179,664.679749 
	C739.229187,664.038757 737.536377,662.551331 736.444275,662.907227 
	C732.315491,664.252563 729.923767,667.388672 728.865906,672.681519 
	C733.859375,670.920959 738.450012,670.269531 740.646179,664.679749 
z"/>
<path fill="#586CAB" opacity="1.000000" stroke="none" 
	d="
M644.911438,665.007996 
	C643.826904,669.977966 642.669617,674.499023 641.937439,679.087891 
	C641.650757,680.884216 642.317993,682.832703 642.550781,684.711914 
	C644.419067,684.304077 646.298706,683.939880 648.149475,683.463684 
	C648.761353,683.306335 649.299072,682.860474 651.219971,683.158691 
	C650.536011,684.627075 650.245117,686.705627 649.093262,687.447693 
	C645.823181,689.554321 642.033875,690.972107 638.376526,688.447815 
	C634.827087,685.998047 635.897278,682.286072 636.595642,678.854065 
	C637.587585,673.979187 638.641785,669.116943 639.727356,663.974548 
	C638.355774,663.334351 637.147888,662.770630 636.637512,662.532410 
	C638.666260,659.089050 640.270447,655.825867 642.427673,652.982056 
	C643.242188,651.908264 645.335022,651.804138 647.336365,651.080383 
	C647.048584,653.856201 646.817261,656.087341 646.551514,658.651001 
	C649.322510,658.866882 651.886292,659.066589 654.450073,659.266357 
	C654.678711,659.691162 654.907410,660.116028 655.136047,660.540894 
	C653.855164,661.386597 652.671509,662.492981 651.270142,663.015686 
	C649.266479,663.763062 647.103577,664.083435 644.911438,665.007996 
z"/>
<path fill="#596DAB" opacity="1.000000" stroke="none" 
	d="
M979.497925,660.627869 
	C982.058899,659.344299 984.335388,658.333252 987.698242,656.839661 
	C987.300049,659.891113 987.098572,661.434937 986.900452,662.953308 
	C978.664062,663.783936 975.897034,669.865967 973.548706,676.156250 
	C972.570068,678.777527 972.168274,681.644897 971.752930,684.437439 
	C971.285645,687.579041 969.850708,688.875549 965.983459,687.479492 
	C967.850403,678.581787 969.621216,669.524719 971.783630,660.562195 
	C972.077820,659.343201 974.331238,658.596802 975.820190,658.035645 
	C978.425415,657.627686 974.593262,664.220337 979.497925,660.627869 
z"/>
<path fill="#5B6EAC" opacity="1.000000" stroke="none" 
	d="
M667.034302,662.515747 
	C665.378723,670.374634 663.671265,677.818481 662.268555,685.319214 
	C661.673584,688.500183 660.285583,689.683044 656.459473,688.456238 
	C658.418213,679.241272 660.324951,669.899414 662.519531,660.625732 
	C662.702759,659.851624 664.827087,659.536865 666.049500,659.008667 
	C666.401611,660.046997 666.753662,661.085388 667.034302,662.515747 
z"/>
<path fill="#5B6EAC" opacity="1.000000" stroke="none" 
	d="
M668.445435,651.176514 
	C666.821777,650.411072 664.718689,649.702698 664.474854,648.587708 
	C664.237244,647.501465 665.657471,645.662842 666.827820,644.812683 
	C667.473389,644.343811 669.101501,645.227722 670.286682,645.501770 
	C669.784363,647.353027 669.282043,649.204346 668.445435,651.176514 
z"/>
<path fill="#EBE8E1" opacity="1.000000" stroke="none" 
	d="
M534.527283,554.493652 
	C533.594727,555.294861 532.741699,555.948425 531.883423,555.955383 
	C522.754822,556.029846 513.625427,556.001587 503.183502,556.001587 
	C513.824524,541.461487 523.892944,527.703796 534.604370,513.067444 
	C534.604370,527.562805 534.604370,540.804260 534.527283,554.493652 
z"/>
<path fill="#EBE8E1" opacity="1.000000" stroke="none" 
	d="
M643.013428,549.781372 
	C638.555359,549.781250 634.594421,549.781250 629.799255,549.781250 
	C630.421265,543.498230 632.397705,538.452881 637.433716,535.251526 
	C643.466431,531.416443 650.009888,531.017212 656.239136,534.752441 
	C661.552124,537.938293 663.429321,543.063965 663.076477,549.781555 
	C656.358337,549.781555 649.934448,549.781555 643.013428,549.781372 
z"/>
<path fill="#EBE8E1" opacity="1.000000" stroke="none" 
	d="
M771.923523,532.238159 
	C783.442688,534.264954 788.366333,539.801575 787.414246,549.507812 
	C776.539551,549.507812 765.636353,549.507812 754.730957,549.507812 
	C754.777344,539.533936 759.996643,534.215820 771.923523,532.238159 
z"/>
<path fill="#EBE8E1" opacity="1.000000" stroke="none" 
	d="
M446.349152,683.764526 
	C442.228821,684.259521 438.488647,684.626282 434.129578,685.053833 
	C435.172028,679.772827 435.986298,675.386780 436.940796,671.031372 
	C437.133240,670.153381 437.661896,669.086731 438.371796,668.631958 
	C440.836853,667.052856 450.328125,669.156311 451.831909,671.459656 
	C454.256073,675.172852 452.507263,680.018372 447.605377,683.156738 
	C447.325653,683.335754 447.021912,683.477356 446.349152,683.764526 
z"/>
<path fill="#EBE8E1" opacity="1.000000" stroke="none" 
	d="
M454.078430,653.340210 
	C453.636841,662.243835 449.470428,664.973206 437.848114,663.373047 
	C439.424072,658.572388 439.786865,652.787659 442.862152,649.741455 
	C444.918488,647.704651 451.264221,648.172974 454.078430,653.340210 
z"/>
<path fill="#EBE8E1" opacity="1.000000" stroke="none" 
	d="
M553.614990,682.801880 
	C551.381836,683.586121 549.432007,684.127380 547.482178,684.668701 
	C546.948120,682.692810 545.836548,680.672852 545.983582,678.749084 
	C546.518127,671.754456 549.344849,665.923462 556.183167,663.019409 
	C557.670715,662.387634 559.892517,662.401794 561.292908,663.094849 
	C562.016174,663.452759 561.967651,665.992554 561.769592,667.480225 
	C560.978088,673.427856 558.313049,678.467346 553.614990,682.801880 
z"/>
<path fill="#EBE8E1" opacity="1.000000" stroke="none" 
	d="
M787.611816,663.304565 
	C786.823975,670.932861 784.817078,677.775879 778.828552,682.564270 
	C777.319336,683.770996 775.025757,683.996887 773.092651,684.673523 
	C772.422974,682.737183 771.107666,680.768250 771.203674,678.870667 
	C771.501343,672.985657 773.715576,667.581726 778.767700,664.375366 
	C781.047180,662.928589 784.520447,663.362915 787.611816,663.304565 
z"/>
<path fill="#EBE8E1" opacity="1.000000" stroke="none" 
	d="
M1003.593933,668.709473 
	C1000.783936,670.036926 998.283264,671.160583 995.576355,672.376892 
	C995.581238,667.652405 999.011780,662.852112 1002.723755,662.234070 
	C1003.813171,662.052673 1005.061218,662.823730 1006.236511,663.158325 
	C1005.458801,664.940796 1004.681091,666.723267 1003.593933,668.709473 
z"/>
<path fill="#EBE8E1" opacity="1.000000" stroke="none" 
	d="
M948.342712,671.325623 
	C947.085938,671.588806 946.174194,671.702820 945.262512,671.816772 
	C944.982910,671.477783 944.703247,671.138733 944.423645,670.799744 
	C946.737122,668.171692 948.836304,665.291443 951.476562,663.048035 
	C952.442139,662.227600 954.692078,662.918640 956.356018,662.920105 
	C955.845764,664.625244 955.824646,666.837952 954.708130,667.914001 
	C953.124268,669.440369 950.733643,670.129517 948.342712,671.325623 
z"/>
<path fill="#EBE8E1" opacity="1.000000" stroke="none" 
	d="
M740.629639,665.029785 
	C738.450012,670.269531 733.859375,670.920959 728.865906,672.681519 
	C729.923767,667.388672 732.315491,664.252563 736.444275,662.907227 
	C737.536377,662.551331 739.229187,664.038757 740.629639,665.029785 
z"/>
</svg>